<?xml version="1.0" encoding="UTF-8" standalone="no"?>
<!DOCTYPE svg PUBLIC "-//W3C//DTD SVG 1.1//EN"
 "http://www.w3.org/Graphics/SVG/1.1/DTD/svg11.dtd">
<!-- Generated by graphviz version 2.43.0 (0)
 -->
<!-- Title: %3 Pages: 1 -->
<svg width="219pt" height="404pt"
 viewBox="0.00 0.00 219.00 404.00" xmlns="http://www.w3.org/2000/svg" xmlns:xlink="http://www.w3.org/1999/xlink">
<g id="graph0" class="graph" transform="scale(1 1) rotate(0) translate(4 400)">
<title>%3</title>
<polygon fill="white" stroke="transparent" points="-4,4 -4,-400 215,-400 215,4 -4,4"/>
<!-- M -->
<g id="node1" class="node">
<title>M</title>
<ellipse fill="none" stroke="black" cx="87" cy="-378" rx="27" ry="18"/>
<text text-anchor="middle" x="87" y="-374.3" font-family="Times,serif" font-size="14.00">M</text>
</g>
<!-- V -->
<g id="node2" class="node">
<title>V</title>
<ellipse fill="none" stroke="black" cx="91" cy="-234" rx="27" ry="18"/>
<text text-anchor="middle" x="91" y="-230.3" font-family="Times,serif" font-size="14.00">V</text>
</g>
<!-- M&#45;&gt;V -->
<g id="edge1" class="edge">
<title>M&#45;&gt;V</title>
<path fill="none" stroke="black" d="M82.92,-360.15C81.01,-335.92 81.98,-290.96 84.8,-262.05"/>
<polygon fill="black" stroke="black" points="88.31,-262.16 85.97,-251.82 81.36,-261.36 88.31,-262.16"/>
</g>
<!-- M&#45;&gt;V -->
<g id="edge2" class="edge">
<title>M&#45;&gt;V</title>
<path fill="none" stroke="black" stroke-dasharray="5,2" d="M92.03,-360.15C95.31,-335.92 96.87,-290.96 95.67,-262.05"/>
<polygon fill="black" stroke="black" points="99.15,-261.6 95.08,-251.82 92.17,-262.01 99.15,-261.6"/>
</g>
<!-- L -->
<g id="node4" class="node">
<title>L</title>
<ellipse fill="none" stroke="black" cx="184" cy="-90" rx="27" ry="18"/>
<text text-anchor="middle" x="184" y="-86.3" font-family="Times,serif" font-size="14.00">L</text>
</g>
<!-- M&#45;&gt;L -->
<g id="edge14" class="edge">
<title>M&#45;&gt;L</title>
<path fill="none" stroke="black" d="M112.25,-371.47C136.22,-364.73 170.89,-350.77 187,-324 226.28,-258.72 206.14,-163.39 192.75,-117.55"/>
<polygon fill="black" stroke="black" points="196.04,-116.32 189.78,-107.78 189.34,-118.36 196.04,-116.32"/>
</g>
<!-- P -->
<g id="node5" class="node">
<title>P</title>
<ellipse fill="none" stroke="black" cx="27" cy="-90" rx="27" ry="18"/>
<text text-anchor="middle" x="27" y="-86.3" font-family="Times,serif" font-size="14.00">P</text>
</g>
<!-- M&#45;&gt;P -->
<g id="edge11" class="edge">
<title>M&#45;&gt;P</title>
<path fill="none" stroke="black" d="M76.74,-361.31C66.98,-337.72 54.51,-291.64 46,-252 35.99,-205.35 27.05,-150.51 24.64,-118.38"/>
<polygon fill="black" stroke="black" points="28.12,-117.8 24.07,-108.01 21.13,-118.18 28.12,-117.8"/>
</g>
<!-- M&#45;&gt;P -->
<g id="edge12" class="edge">
<title>M&#45;&gt;P</title>
<path fill="none" stroke="black" stroke-dasharray="1,5" d="M88.14,-359.71C84.43,-335.68 72.32,-290.77 64,-252 53.89,-204.9 44.87,-149.45 37.32,-117.45"/>
<polygon fill="black" stroke="black" points="40.66,-116.38 34.82,-107.54 33.87,-118.09 40.66,-116.38"/>
</g>
<!-- C -->
<g id="node6" class="node">
<title>C</title>
<ellipse fill="none" stroke="black" cx="151" cy="-306" rx="27" ry="18"/>
<text text-anchor="middle" x="151" y="-302.3" font-family="Times,serif" font-size="14.00">C</text>
</g>
<!-- M&#45;&gt;C -->
<g id="edge10" class="edge">
<title>M&#45;&gt;C</title>
<path fill="none" stroke="black" d="M100.57,-362.15C109.31,-352.6 120.83,-339.99 130.66,-329.25"/>
<polygon fill="black" stroke="black" points="133.28,-331.57 137.45,-321.82 128.12,-326.84 133.28,-331.57"/>
</g>
<!-- G -->
<g id="node3" class="node">
<title>G</title>
<ellipse fill="none" stroke="black" cx="91" cy="-162" rx="27" ry="18"/>
<text text-anchor="middle" x="91" y="-158.3" font-family="Times,serif" font-size="14.00">G</text>
</g>
<!-- V&#45;&gt;G -->
<g id="edge3" class="edge">
<title>V&#45;&gt;G</title>
<path fill="none" stroke="black" stroke-dasharray="5,2" d="M85.16,-216.41C84.3,-208.51 84.05,-198.85 84.41,-189.94"/>
<polygon fill="black" stroke="black" points="87.9,-190.18 85.12,-179.96 80.92,-189.68 87.9,-190.18"/>
</g>
<!-- G&#45;&gt;V -->
<g id="edge4" class="edge">
<title>G&#45;&gt;V</title>
<path fill="none" stroke="black" d="M96.88,-179.96C97.71,-187.83 97.95,-197.37 97.58,-206.19"/>
<polygon fill="black" stroke="black" points="94.07,-206.18 96.84,-216.41 101.06,-206.69 94.07,-206.18"/>
</g>
<!-- G&#45;&gt;L -->
<g id="edge5" class="edge">
<title>G&#45;&gt;L</title>
<path fill="none" stroke="black" d="M108.49,-147.83C122.52,-137.27 142.42,-122.3 158.26,-110.37"/>
<polygon fill="black" stroke="black" points="160.7,-112.92 166.59,-104.11 156.49,-107.32 160.7,-112.92"/>
</g>
<!-- G&#45;&gt;P -->
<g id="edge6" class="edge">
<title>G&#45;&gt;P</title>
<path fill="none" stroke="black" d="M77.43,-146.15C68.69,-136.6 57.17,-123.99 47.34,-113.25"/>
<polygon fill="black" stroke="black" points="49.88,-110.84 40.55,-105.82 44.72,-115.57 49.88,-110.84"/>
</g>
<!-- I -->
<g id="node7" class="node">
<title>I</title>
<ellipse fill="none" stroke="black" cx="27" cy="-18" rx="27" ry="18"/>
<text text-anchor="middle" x="27" y="-14.3" font-family="Times,serif" font-size="14.00">I</text>
</g>
<!-- P&#45;&gt;I -->
<g id="edge13" class="edge">
<title>P&#45;&gt;I</title>
<path fill="none" stroke="black" stroke-dasharray="1,5" d="M27,-71.7C27,-63.98 27,-54.71 27,-46.11"/>
<polygon fill="black" stroke="black" points="30.5,-46.1 27,-36.1 23.5,-46.1 30.5,-46.1"/>
</g>
<!-- C&#45;&gt;V -->
<g id="edge7" class="edge">
<title>C&#45;&gt;V</title>
<path fill="none" stroke="black" d="M137.98,-289.81C129.96,-280.45 119.53,-268.28 110.53,-257.79"/>
<polygon fill="black" stroke="black" points="113.16,-255.47 103.99,-250.16 107.84,-260.03 113.16,-255.47"/>
</g>
<!-- C&#45;&gt;G -->
<g id="edge9" class="edge">
<title>C&#45;&gt;G</title>
<path fill="none" stroke="black" d="M148.17,-288.02C144.71,-269.67 137.94,-239.86 127,-216 122.34,-205.84 115.79,-195.49 109.55,-186.66"/>
<polygon fill="black" stroke="black" points="112.24,-184.4 103.5,-178.41 106.59,-188.54 112.24,-184.4"/>
</g>
<!-- C&#45;&gt;L -->
<g id="edge8" class="edge">
<title>C&#45;&gt;L</title>
<path fill="none" stroke="black" d="M153.64,-287.85C159.37,-250.74 172.94,-162.75 179.83,-118.05"/>
<polygon fill="black" stroke="black" points="183.32,-118.35 181.39,-107.94 176.41,-117.29 183.32,-118.35"/>
</g>
</g>
</svg>
